<svg height='21px' width='21px' fill="#8c1515" xmlns="http://www.w3.org/2000/svg" xmlns:xlink="http://www.w3.org/1999/xlink" version="1.1" x="0px" y="0px" viewBox="0 0 69 69" style="enable-background:new 0 0 69 69;" xml:space="preserve"><g><path d="M56.04089,59.33289h-9.98096V38.28711H27.92004v21.04578h-9.98071c-0.55273,0-1,0.44775-1,1s0.44727,1,1,1h38.10156   c0.55273,0,1-0.44775,1-1S56.59363,59.33289,56.04089,59.33289z M30.10999,41.4071c0.2988-0.71638,1.27015-0.77065,1.63-0.32001   c0.36328,0.36353,0.36005,0.80039,0.13,1.26001c-0.46286,0.57787-1.2255,0.54272-1.54004,0.15002   C30.13294,42.33952,29.91574,41.87281,30.10999,41.4071z M30.32996,45.68713c0.32321-0.40401,1.12692-0.35497,1.41003,0   c0.33541,0.31764,0.43921,0.97047,0,1.40997c-0.33904,0.42458-1.32293,0.41623-1.63-0.32001   C29.94167,46.37356,30.05607,45.94667,30.32996,45.68713z"></path><path d="M35.30994,18.88708c0.75,0,1.3501-0.59998,1.3501-1.34998V9.01709c0-0.73999-0.6001-1.34998-1.3501-1.34998   c-0.73999,0-1.34985,0.60999-1.34985,1.34998v8.52002C33.96008,18.28711,34.56995,18.88708,35.30994,18.88708z"></path><path d="M40.01001,18.88708c0.75,0,1.34998-0.59998,1.34998-1.34998V9.01709c0-0.73999-0.59998-1.34998-1.34998-1.34998   c-0.73999,0-1.34998,0.60999-1.34998,1.34998v8.52002C38.66003,18.28711,39.27002,18.88708,40.01001,18.88708z"></path><path d="M30.60999,18.88708c0.75,0,1.3501-0.59998,1.3501-1.34998V9.01709c0-0.73999-0.6001-1.34998-1.3501-1.34998   c-0.73999,0-1.34998,0.60999-1.34998,1.34998c0,0.56293,0,8.90222,0,8.53003C29.26001,18.28711,29.87,18.88708,30.60999,18.88708z"></path><path d="M21.52991,40.23712c0-0.26001-0.09985-0.52002-0.28992-0.71002s-0.45007-0.29999-0.71008-0.29999h-1.07983   L13.51001,26.6571V15.80713c0.64001-0.33002,1.14001-0.89001,1.39001-1.57001h9.42993v11.63   c0,0.29999,0.15002,0.57001,0.40002,0.72998l4.88,3.10999c0.29004,0.17999,0.46997,0.5,0.46997,0.84003v5.73999h14.19006v-4.29999   c0-4.18344,1.78992-4.91166,1.78992-8.62v-2.77002c-1.14874,0.53246-2.65335,0.34943-3.69995-0.67999   c-1.27126,1.27126-3.36237,1.31564-4.69995,0c-1.27149,1.27123-3.36269,1.31558-4.69995,0   c-1.03207,1.03186-2.55527,1.21048-3.70007,0.67999v2.03998l1.07996,0.30005c2.65002,0.71997,4.86011,2.65997,5.90002,5.19995   c0.21008,0.51001-0.03992,1.10004-0.54993,1.31c-0.51001,0.20001-1.1001-0.03998-1.30005-0.54999   C32.76086,24.93518,28.67636,24.67743,28,24.36713c-0.44006-0.12-0.73999-0.51001-0.73999-0.96002v-9.40002   c0-1.04999-0.41003-2.02997-1.15002-2.75995c-0.5-0.51001-1.10999-0.86005-1.78003-1.03003v2.02002H14.06995   c-0.54993,0-1,0.45001-1,1c0,0.48999-0.38989,0.89001-0.87988,0.89001c-0.5,0-0.91016-0.40002-0.91016-0.89001   c0-0.54999-0.43994-1-1-1c-0.54993,0-1,0.45001-1,1c0,1.35999,0.96008,2.5,2.2301,2.81V26.6571L5.57996,39.22711H4.5   c-0.27002,0-0.52002,0.10999-0.71008,0.29999C3.59998,39.7171,3.5,39.97711,3.5,40.23712   c0.06995,4.90997,4.10999,8.89996,9.01001,8.89996C17.42004,49.13708,21.46008,45.14709,21.52991,40.23712z M7.78992,39.22711   l4.72009-10.01001l4.71997,10.01001H7.78992z"></path><path d="M65.21008,39.5271c-0.19006-0.19-0.44006-0.29999-0.71008-0.29999h-1.07996L57.48999,26.6571V15.93713   C58.58997,15.5271,59.38,14.47711,59.38,13.22711c0-0.54999-0.44995-1-1-1s-1,0.45001-1,1c0,0.5-0.41003,0.90002-0.90002,0.90002   s-0.89001-0.40002-0.89001-0.90002c0-0.54999-0.44995-1-1-1h-8.54004c-0.02002-0.72003-0.60986-1.29999-1.33984-1.29999   c-0.74011,0-1.3501,0.60999-1.3501,1.34998v5.26001c0,0.75,0.60999,1.34998,1.3501,1.34998c0.75,0,1.34985-0.59998,1.34985-1.34998   v-3.31h7.71008c0.28992,0.79999,0.92004,1.42999,1.71997,1.71997V26.6571l-5.94006,12.57001h-1.07996   c-0.25989,0-0.5199,0.10999-0.70996,0.29999s-0.29004,0.45001-0.29004,0.71002c0.06995,4.90997,4.10999,8.89996,9.02002,8.89996   c4.90002,0,8.94006-3.98999,9.01001-8.89996C65.5,39.97711,65.40002,39.7171,65.21008,39.5271z M51.77002,39.22711   l4.71997-10.01001l4.72009,10.01001H51.77002z"></path></g></svg>
